# xmcd CD database file
# Copyright (C) 1993-1998 Ti Kan
#
# Track frame offsets:
#	150
#	13942
#	23505
#	34127
#	45830
#	55585
#	66352
#	76545
#	89422
#	100117
#	111537
#	123215
#	133090
#	142680
#	154125
#	165692
#	176245
#	186307
#	198102
#	210437
#	223705
#	238192
#	249305
#	262400
#	274932
#	286875
#	298322
#	308470
#	319582
#	330482
#
# Disc length: 4577 seconds
#
# Revision: 1
# Processed by: cddbd v1.4b41PL1 Copyright (c) Steve Scherf et al.
# Submitted via: CDValet v3.31 - Copyright (c) 1997 Greg Leichner
#
DISCID=ae11df1e
DTITLE=Spaniels - Gddonite Sweetheart Goodnite
DYEAR=1900
DGENRE=
TTITLE0=Play It Cool
TTITLE1=Bounce
TTITLE2=House Cleaning
TTITLE3=Get Away Child (You Don't Move Me)
TTITLE4=Hey Sister Lizzie
TTITLE5=Baby Come Along With Me
TTITLE6=Why Don't You Dance
TTITLE7=Please Don't Tease
TTITLE8=I need Your Kisses
TTITLE9=I like It Like That
TTITLE10=Lucindia
TTITLE11=Crazee Baby
TTITLE12=Great Googley Moo
TTITLE13=Lovey Dovey baby
TTITLE14=Stormy Weather
TTITLE15=Automobiles
TTITLE16=Baby Sweets
TTITLE17=Baby It's You
TTITLE18=Goodnite Sweetheart Goodnite
TTITLE19=Let's Make Up
TTITLE20=False Love
TTITLE21=Your Painted Pictures
TTITLE22=You Gave Me (Piece Of Mind)
TTITLE23=I Owe You
TTITLE24=You're Gonna Cry
TTITLE25=Here Is Why I Love You
TTITLE26=Red Sails In The Sunset
TTITLE27=A Hundred Years From Today
TTITLE28=Jessie Mae
TTITLE29=Everybody's Laughing
EXTD=
EXTT0=
EXTT1=
EXTT2=
EXTT3=
EXTT4=
EXTT5=
EXTT6=
EXTT7=
EXTT8=
EXTT9=
EXTT10=
EXTT11=
EXTT12=
EXTT13=
EXTT14=
EXTT15=
EXTT16=
EXTT17=
EXTT18=
EXTT19=
EXTT20=
EXTT21=
EXTT22=
EXTT23=
EXTT24=
EXTT25=
EXTT26=
EXTT27=
EXTT28=
EXTT29=
PLAYORDER=
